<svg xmlns="http://www.w3.org/2000/svg" xmlns:xlink="http://www.w3.org/1999/xlink" viewBox="0,0,256,256" width="48px" height="48px"><defs><linearGradient x1="23.5" y1="63.528" x2="23.5" y2="-12.573" gradientUnits="userSpaceOnUse" id="color-1"><stop offset="0" stop-color="#020000"></stop><stop offset="0.781" stop-color="#000000"></stop><stop offset="1" stop-color="#090000"></stop></linearGradient><linearGradient x1="24" y1="-4.363" x2="24" y2="35.77" gradientUnits="userSpaceOnUse" id="color-2"><stop offset="0" stop-color="#080000"></stop><stop offset="1" stop-color="#000000"></stop></linearGradient><linearGradient x1="39.279" y1="49.917" x2="2.112" y2="-13.128" gradientUnits="userSpaceOnUse" id="color-3"><stop offset="0" stop-color="#000000"></stop><stop offset="1" stop-color="#0b0102"></stop></linearGradient></defs><g fill="none" fill-rule="nonzero" stroke="none" stroke-width="1" stroke-linecap="butt" stroke-linejoin="miter" stroke-miterlimit="10" stroke-dasharray="" stroke-dashoffset="0" font-family="none" font-weight="none" font-size="none" text-anchor="none" style="mix-blend-mode: normal"><g transform="scale(5.33333,5.33333)"><path d="M29.482,23.973l-5.321,-7.661l-6.089,7.071l5.32,7.662z" fill="#020000" opacity="0.1"></path><path d="M29.04,23.337l-4.437,-6.389l-6.089,7.072l4.437,6.389z" fill="#020000" opacity="0.2"></path><path d="M28.598,22.701l-3.553,-5.116l-6.089,7.071l3.553,5.116z" fill="#020000" opacity="0.3"></path><path d="M28.156,22.065l-2.669,-3.844l-6.09,7.071l2.67,3.844z" fill="#020000" opacity="0.4"></path><path d="M7.345,42h2.003c0.414,0 0.807,-0.18 1.077,-0.494l29.698,-34.487c0.344,-0.4 0.06,-1.019 -0.468,-1.019h-2.003c-0.414,0 -0.807,0.18 -1.077,0.494l-29.698,34.487c-0.344,0.4 -0.06,1.019 0.468,1.019z" fill="url(#color-1)"></path><path d="M20.277,30.065l8.785,-10.202l-1.786,-2.571l-8.785,10.202z" fill="#000000" opacity="0.05"></path><path d="M20.547,29.752l8.246,-9.576l-1.786,-2.571l-8.246,9.576z" fill="#000000" opacity="0.1"></path><path d="M20.816,29.439l7.707,-8.95l-1.786,-2.571l-7.706,8.95z" fill="#000000" opacity="0.2"></path><path d="M21.086,29.126l7.167,-8.324l-1.785,-2.571l-7.168,8.324z" fill="#000000" opacity="0.3"></path><path d="M21.355,28.813l6.629,-7.698l-1.786,-2.571l-6.628,7.698z" fill="#000000" opacity="0.4"></path><path d="M39.969,42h-8.059c-0.57,0 -1.105,-0.279 -1.43,-0.748l-23.321,-33.584c-0.49,-0.704 0.014,-1.668 0.872,-1.668h8.058c0.57,0 1.105,0.279 1.43,0.748l23.322,33.584c0.49,0.704 -0.014,1.668 -0.872,1.668z" fill="url(#color-2)"></path><path d="M16.09,6.5c0.406,0 0.787,0.199 1.019,0.533l23.322,33.584c0.122,0.175 0.135,0.392 0.036,0.581c-0.099,0.189 -0.285,0.302 -0.498,0.302h-8.059c-0.406,0 -0.787,-0.199 -1.019,-0.533l-23.322,-33.584c-0.121,-0.175 -0.135,-0.392 -0.036,-0.581c0.099,-0.189 0.285,-0.302 0.498,-0.302h8.059M16.09,6h-8.059c-0.858,0 -1.362,0.964 -0.872,1.668l23.322,33.584c0.325,0.469 0.859,0.748 1.429,0.748h8.058c0.858,0 1.362,-0.964 0.873,-1.668l-23.322,-33.584c-0.325,-0.469 -0.859,-0.748 -1.429,-0.748z" fill="url(#color-3)"></path><path d="M21.625,28.5l6.089,-7.071l-1.785,-2.572l-6.09,7.072z" fill="#000000" opacity="0.4"></path><path d="M38,40h-5.778l-22.222,-32h5.778z" fill="#ffffff" opacity="0.3"></path></g></g></svg>